<svg xmlns="http://www.w3.org/2000/svg" width="100" height="127" viewBox="0 0 100 127" version="1.1"><path d="M 23.500 5.886 L 0.500 11.556 0.500 43.028 L 0.500 74.500 12.500 75.114 C 19.100 75.452, 25.962 75.790, 27.750 75.864 L 31 76 31 83.439 L 31 90.877 26.750 91.435 C 20.549 92.248, 3.333 94, 1.539 94 C 0.248 94, -0 95.745, -0 104.809 L -0 115.618 23.250 121.326 C 36.037 124.465, 47.049 127.026, 47.720 127.017 C 48.601 127.005, 49.018 123.452, 49.220 114.250 L 49.500 101.500 64 99.347 C 71.975 98.163, 79.063 97.150, 79.750 97.097 C 80.668 97.026, 81 94.081, 81 85.996 L 81 74.992 67.750 75.544 C 60.462 75.848, 53.263 76.288, 51.750 76.523 L 49 76.950 49 38.475 C 49 8.304, 48.730 0.023, 47.750 0.108 C 47.063 0.167, 36.150 2.767, 23.500 5.886 M 74 32.772 C 74 36.233, 74.024 36.252, 77.750 35.678 C 79.813 35.361, 85.450 34.790, 90.277 34.411 C 95.104 34.031, 98.892 33.558, 98.694 33.360 C 98.495 33.162, 92.858 32.165, 86.167 31.145 L 74 29.289 74 32.772" stroke="none" fill="#0d7ddb" fill-rule="evenodd"/><path d="M 49 38.475 L 49 76.950 51.750 76.523 C 53.262 76.288, 60.462 75.848, 67.750 75.544 L 81 74.992 81 85.996 C 81 94.081, 80.668 97.026, 79.750 97.097 C 79.063 97.150, 71.975 98.163, 64 99.347 L 49.500 101.500 49.220 114.250 C 49.004 124.081, 49.233 127.004, 50.220 127.017 C 50.924 127.026, 62.409 124.439, 75.742 121.267 L 99.984 115.500 99.992 84.397 L 100 53.293 92.349 52.647 C 88.141 52.291, 82.291 52, 79.349 52 L 74 52 74 40.646 L 74 29.293 85.750 31.113 C 92.213 32.114, 98.063 32.948, 98.750 32.967 C 99.672 32.991, 100 30.265, 100 22.567 C 100 13.492, 99.772 12.069, 98.250 11.627 C 95.554 10.846, 50.093 0, 49.513 0 C 49.231 0, 49 17.314, 49 38.475" stroke="none" fill="#f4b21a" fill-rule="evenodd"/></svg>